<mxfile host="app.diagrams.net" modified="2020-10-12T20:52:26.036Z" agent="5.0 (Windows NT 10.0; Win64; x64) AppleWebKit/537.36 (KHTML, like Gecko) Chrome/85.0.4183.121 Safari/537.36" etag="_1v3ULWnNBaaxlgLAJcW" version="13.7.9" type="github">
  <diagram id="Zg-7fqGjjJfNrSvSmKhG" name="Page-1">
    <mxGraphModel dx="948" dy="529" grid="1" gridSize="10" guides="1" tooltips="1" connect="1" arrows="1" fold="1" page="1" pageScale="1" pageWidth="850" pageHeight="1100" math="0" shadow="0">
      <root>
        <mxCell id="0" />
        <mxCell id="1" parent="0" />
        <mxCell id="AXkw4FbQmVA1IHhyUKBD-4" value="i = 0" style="edgeStyle=orthogonalEdgeStyle;rounded=0;orthogonalLoop=1;jettySize=auto;html=1;entryX=0.539;entryY=0.061;entryDx=0;entryDy=0;entryPerimeter=0;" edge="1" parent="1" source="AXkw4FbQmVA1IHhyUKBD-1" target="AXkw4FbQmVA1IHhyUKBD-2">
          <mxGeometry relative="1" as="geometry" />
        </mxCell>
        <mxCell id="AXkw4FbQmVA1IHhyUKBD-10" value="No" style="edgeLabel;html=1;align=center;verticalAlign=middle;resizable=0;points=[];" vertex="1" connectable="0" parent="AXkw4FbQmVA1IHhyUKBD-4">
          <mxGeometry x="0.6586" y="1" relative="1" as="geometry">
            <mxPoint as="offset" />
          </mxGeometry>
        </mxCell>
        <mxCell id="AXkw4FbQmVA1IHhyUKBD-1" value="1, 2, 3, 4" style="rounded=0;whiteSpace=wrap;html=1;" vertex="1" parent="1">
          <mxGeometry x="170" y="210" width="120" height="60" as="geometry" />
        </mxCell>
        <mxCell id="AXkw4FbQmVA1IHhyUKBD-6" value="NO" style="edgeStyle=orthogonalEdgeStyle;rounded=0;orthogonalLoop=1;jettySize=auto;html=1;entryX=0.5;entryY=0;entryDx=0;entryDy=0;" edge="1" parent="1" source="AXkw4FbQmVA1IHhyUKBD-29" target="AXkw4FbQmVA1IHhyUKBD-3">
          <mxGeometry relative="1" as="geometry" />
        </mxCell>
        <mxCell id="AXkw4FbQmVA1IHhyUKBD-2" value="i loop" style="rounded=1;whiteSpace=wrap;html=1;" vertex="1" parent="1">
          <mxGeometry x="270" y="490" width="120" height="60" as="geometry" />
        </mxCell>
        <mxCell id="AXkw4FbQmVA1IHhyUKBD-3" value="j Loop" style="rounded=1;whiteSpace=wrap;html=1;" vertex="1" parent="1">
          <mxGeometry x="280" y="690" width="120" height="60" as="geometry" />
        </mxCell>
        <mxCell id="AXkw4FbQmVA1IHhyUKBD-11" value="yes" style="edgeStyle=orthogonalEdgeStyle;rounded=0;orthogonalLoop=1;jettySize=auto;html=1;" edge="1" parent="1" source="AXkw4FbQmVA1IHhyUKBD-7" target="AXkw4FbQmVA1IHhyUKBD-9">
          <mxGeometry relative="1" as="geometry" />
        </mxCell>
        <mxCell id="AXkw4FbQmVA1IHhyUKBD-7" value="i &amp;lt; len(n)" style="rhombus;whiteSpace=wrap;html=1;" vertex="1" parent="1">
          <mxGeometry x="190" y="300" width="80" height="80" as="geometry" />
        </mxCell>
        <mxCell id="AXkw4FbQmVA1IHhyUKBD-8" value="start" style="text;html=1;align=center;verticalAlign=middle;resizable=0;points=[];autosize=1;" vertex="1" parent="1">
          <mxGeometry x="190" y="170" width="40" height="20" as="geometry" />
        </mxCell>
        <mxCell id="AXkw4FbQmVA1IHhyUKBD-9" value="end" style="rounded=1;whiteSpace=wrap;html=1;" vertex="1" parent="1">
          <mxGeometry x="410" y="270" width="120" height="60" as="geometry" />
        </mxCell>
        <mxCell id="AXkw4FbQmVA1IHhyUKBD-26" value="1, 2&lt;br&gt;1, 3&lt;br&gt;1, 4" style="whiteSpace=wrap;html=1;aspect=fixed;" vertex="1" parent="1">
          <mxGeometry x="500" y="420" width="60" height="60" as="geometry" />
        </mxCell>
        <mxCell id="AXkw4FbQmVA1IHhyUKBD-27" value="2, 3&lt;br&gt;2, 4" style="whiteSpace=wrap;html=1;aspect=fixed;" vertex="1" parent="1">
          <mxGeometry x="500" y="490" width="60" height="60" as="geometry" />
        </mxCell>
        <mxCell id="AXkw4FbQmVA1IHhyUKBD-28" value="3, 4" style="whiteSpace=wrap;html=1;aspect=fixed;" vertex="1" parent="1">
          <mxGeometry x="500" y="560" width="60" height="60" as="geometry" />
        </mxCell>
        <mxCell id="AXkw4FbQmVA1IHhyUKBD-32" style="edgeStyle=orthogonalEdgeStyle;rounded=0;orthogonalLoop=1;jettySize=auto;html=1;entryX=0;entryY=0.5;entryDx=0;entryDy=0;" edge="1" parent="1" source="AXkw4FbQmVA1IHhyUKBD-29" target="AXkw4FbQmVA1IHhyUKBD-2">
          <mxGeometry relative="1" as="geometry" />
        </mxCell>
        <mxCell id="AXkw4FbQmVA1IHhyUKBD-29" value="j &amp;lt; len(n)" style="rhombus;whiteSpace=wrap;html=1;" vertex="1" parent="1">
          <mxGeometry x="110" y="560" width="80" height="80" as="geometry" />
        </mxCell>
        <mxCell id="AXkw4FbQmVA1IHhyUKBD-30" value="j = i + 1" style="edgeStyle=orthogonalEdgeStyle;rounded=0;orthogonalLoop=1;jettySize=auto;html=1;entryX=0.5;entryY=0;entryDx=0;entryDy=0;" edge="1" parent="1" source="AXkw4FbQmVA1IHhyUKBD-2" target="AXkw4FbQmVA1IHhyUKBD-29">
          <mxGeometry relative="1" as="geometry">
            <mxPoint x="230" y="470" as="sourcePoint" />
            <mxPoint x="320" y="720" as="targetPoint" />
          </mxGeometry>
        </mxCell>
      </root>
    </mxGraphModel>
  </diagram>
</mxfile>
